<svg xmlns="http://www.w3.org/2000/svg" viewBox="0 0 1920 1010"><linearGradient id="a" gradientUnits="userSpaceOnUse" x1="339.301" y1="-672.38" x2="557.361" y2="-163.575" gradientTransform="translate(0 1020)"><stop offset="0" stop-color="#fff"/><stop offset="1" stop-color="#d1e3f6"/></linearGradient><path d="M832.7 464.2C501.9 385.9.9 378.4.9 378.4v214.3l831.8-128.5z" fill="url(#a)"/><radialGradient id="b" cx="606.718" cy="-1173.2" r="1547.555" fx="267.844" fy="-1155.605" gradientTransform="matrix(1 0 0 .725 0 1084.258)" gradientUnits="userSpaceOnUse"><stop offset="0" stop-color="#fff" stop-opacity="0"/><stop offset="1" stop-color="#d1e3f6"/></radialGradient><path opacity=".1" fill="url(#b)" d="M.9 0H1920v863.5H.9z"/><linearGradient id="c" gradientUnits="userSpaceOnUse" x1="936.556" y1="-515.069" x2="1127.105" y2="-1098.661" gradientTransform="translate(0 1020)"><stop offset="0" stop-color="#fff"/><stop offset="1" stop-color="#d1e3f6"/></linearGradient><path fill="url(#c)" d="M.9 0H1920v863.5H.9z"/><linearGradient id="d" gradientUnits="userSpaceOnUse" x1="882.146" y1="-738.051" x2="970.862" y2="-148.348" gradientTransform="translate(0 1020)"><stop offset="0" stop-color="#fff"/><stop offset="1" stop-color="#d1e3f6"/></linearGradient><path d="M1821.1 409.2c-312.5 19.9-593.9-106.4-963.4-117.1S132.9 400.5 0 400.5v131.8l1768.4-25.8 52.7-97.3z" fill="url(#d)"/><linearGradient id="e" gradientUnits="userSpaceOnUse" x1="1434.158" y1="-692.616" x2="1498.489" y2="-281.563" gradientTransform="translate(0 1020)"><stop offset="0" stop-color="#fff"/><stop offset="1" stop-color="#d1e3f6"/></linearGradient><path d="M973.8 484.9c307.6 3.2 741.1-152.2 946.2-152.2v264.2l-946.2-112z" fill="url(#e)"/><linearGradient id="f" gradientUnits="userSpaceOnUse" x1="712.796" y1="-898.556" x2="1128.728" y2="41.883" gradientTransform="translate(0 1020)"><stop offset="0" stop-color="#fff"/><stop offset="1" stop-color="#d1e3f6"/></linearGradient><path d="M1920 499.3v364.2H.9V463.6c225.9 34.9 443-34.7 831.3-61.7 271.6-18.9 512.1 29.4 760.2 64.9 1.1.2 2.1.3 3.2.5 36.3 5.2 72.8 10.1 109.5 14.5 7 .8 13.9 1.6 20.9 2.4 6 .7 12.1 1.4 18.1 2 4.7.5 9.5 1 14.2 1.5 53.1 5.4 106.9 9.6 161.7 11.6z" fill="url(#f)"/><g><linearGradient id="g" gradientUnits="userSpaceOnUse" x1="666.558" y1="-755.25" x2="859.626" y2="-59.253" gradientTransform="translate(0 1020)"><stop offset="0" stop-color="#fff"/><stop offset="1" stop-color="#d1e3f6"/></linearGradient><path d="M1665.3 863.5C1169 836 771.9 735 423.1 735 296.2 735 133.3 797.2 0 790.9v72.6h1665.3z" fill="url(#g)"/><radialGradient id="h" cx="531.49" cy="-3719.644" r="313.803" gradientTransform="matrix(.9902 -.1395 .0439 .3116 -1.522 1982.295)" gradientUnits="userSpaceOnUse"><stop offset="0" stop-color="#e6edf7"/><stop offset="1" stop-color="#e1e9f6" stop-opacity="0"/></radialGradient><path d="M1665.3 863.5C1169 836 771.9 735 423.1 735 296.2 735 133.3 797.2 0 790.9v72.6h1665.3z" opacity=".47" fill="url(#h)"/></g><path fill="#d1e3f6" d="M0 863.5h1920V1010H0z"/><linearGradient id="i" gradientUnits="userSpaceOnUse" x1="960" y1="660.011" x2="960" y2="717.075" gradientTransform="matrix(1 0 0 -1 0 1520)"><stop offset="0" stop-color="#d1e3f6"/><stop offset="1" stop-color="#d1e3f6" stop-opacity="0"/></linearGradient><path fill="url(#i)" d="M0 799.2h1920v64.2H0z"/></svg>