<svg width="205.23500366210936px" height="336.8px" xmlns="http://www.w3.org/2000/svg" viewBox="147.38249816894532 -93.4 205.23500366210936 336.8" style="background: rgba(0, 0, 0, 0);" preserveAspectRatio="xMidYMid"><defs><filter id="editing-extrusion" x="-100%" y="-100%" width="300%" height="300%"><feFlood result="color1" flood-color="#444"></feFlood><feConvolveMatrix order="16,16" divisor="1" kernelMatrix="1 0 0 0 0 0 0 0 0 0 0 0 0 0 0 0 0 1 0 0 0 0 0 0 0 0 0 0 0 0 0 0 0 0 1 0 0 0 0 0 0 0 0 0 0 0 0 0 0 0 0 1 0 0 0 0 0 0 0 0 0 0 0 0 0 0 0 0 1 0 0 0 0 0 0 0 0 0 0 0 0 0 0 0 0 1 0 0 0 0 0 0 0 0 0 0 0 0 0 0 0 0 1 0 0 0 0 0 0 0 0 0 0 0 0 0 0 0 0 1 0 0 0 0 0 0 0 0 0 0 0 0 0 0 0 0 1 0 0 0 0 0 0 0 0 0 0 0 0 0 0 0 0 1 0 0 0 0 0 0 0 0 0 0 0 0 0 0 0 0 1 0 0 0 0 0 0 0 0 0 0 0 0 0 0 0 0 1 0 0 0 0 0 0 0 0 0 0 0 0 0 0 0 0 1 0 0 0 0 0 0 0 0 0 0 0 0 0 0 0 0 1 0 0 0 0 0 0 0 0 0 0 0 0 0 0 0 0 1 0 0 0 0 0 0 0 0 0 0 0 0 0 0 0 0 1" in="SourceAlpha" result="extrude"></feConvolveMatrix><feComposite in="color1" in2="extrude" result="comp-extrude" operator="in"></feComposite><feOffset dx="8" dy="8" in="comp-extrude" result="offset-extrude"></feOffset><feMerge><feMergeNode in="offset-extrude"></feMergeNode><feMergeNode in="SourceGraphic"></feMergeNode></feMerge></filter></defs><g filter="url(#editing-extrusion)"><g transform="translate(184.00002133846283, 143.8000030517578)"><path d="M44.40 0L1.60 0L26-131.40L26-131.40Q45.80-133.60 74.70-133.60L74.70-133.60L74.70-133.60Q103.60-133.60 117-125.20L117-125.20L117-125.20Q130.40-116.80 130.40-99.90L130.40-99.90L130.40-99.90Q130.40-83 121.70-72.40L121.70-72.40L121.70-72.40Q113-61.80 98-58.40L98-58.40L98-58.40Q101.40-41.80 109.20-28.40L109.20-28.40L109.20-28.40Q116.40-15.80 124.80-11.80L124.80-11.80L124.80-11.80Q121.80-3.40 115.70 0.30L115.70 0.30L115.70 0.30Q109.60 4 100.90 4L100.90 4L100.90 4Q92.20 4 85.40-1.10L85.40-1.10L85.40-1.10Q78.60-6.20 73.20-15.60L73.20-15.60L73.20-15.60Q61.80-36 60.60-68.20L60.60-68.20L62-68.20L62-68.20Q76.80-68.60 84.20-76.30L84.20-76.30L84.20-76.30Q91.60-84 91.60-100.20L91.60-100.20L91.60-100.20Q91.60-120.40 74.60-121.20L74.60-121.20L70.20-121.20L70.20-121.20Q68.40-121.20 67.40-121L67.40-121L44.40 0Z" fill="#ccc"></path></g></g><style>text {
  font-size: 64px;
  font-family: Arial Black;
  dominant-baseline: central;
  text-anchor: middle;
}</style></svg>