<svg width="202.7478820800781px" height="336.8px" xmlns="http://www.w3.org/2000/svg" viewBox="148.62605895996094 -93.4 202.7478820800781 336.8" style="background: rgba(0, 0, 0, 0);" preserveAspectRatio="xMidYMid"><defs><filter id="editing-extrusion" x="-100%" y="-100%" width="300%" height="300%"><feFlood result="color1" flood-color="#444"></feFlood><feConvolveMatrix order="16,16" divisor="1" kernelMatrix="1 0 0 0 0 0 0 0 0 0 0 0 0 0 0 0 0 1 0 0 0 0 0 0 0 0 0 0 0 0 0 0 0 0 1 0 0 0 0 0 0 0 0 0 0 0 0 0 0 0 0 1 0 0 0 0 0 0 0 0 0 0 0 0 0 0 0 0 1 0 0 0 0 0 0 0 0 0 0 0 0 0 0 0 0 1 0 0 0 0 0 0 0 0 0 0 0 0 0 0 0 0 1 0 0 0 0 0 0 0 0 0 0 0 0 0 0 0 0 1 0 0 0 0 0 0 0 0 0 0 0 0 0 0 0 0 1 0 0 0 0 0 0 0 0 0 0 0 0 0 0 0 0 1 0 0 0 0 0 0 0 0 0 0 0 0 0 0 0 0 1 0 0 0 0 0 0 0 0 0 0 0 0 0 0 0 0 1 0 0 0 0 0 0 0 0 0 0 0 0 0 0 0 0 1 0 0 0 0 0 0 0 0 0 0 0 0 0 0 0 0 1 0 0 0 0 0 0 0 0 0 0 0 0 0 0 0 0 1 0 0 0 0 0 0 0 0 0 0 0 0 0 0 0 0 1" in="SourceAlpha" result="extrude"></feConvolveMatrix><feComposite in="color1" in2="extrude" result="comp-extrude" operator="in"></feComposite><feOffset dx="8" dy="8" in="comp-extrude" result="offset-extrude"></feOffset><feMerge><feMergeNode in="offset-extrude"></feMergeNode><feMergeNode in="SourceGraphic"></feMergeNode></feMerge></filter></defs><g filter="url(#editing-extrusion)"><g transform="translate(180.08231830596924, 143)"><path d="M7.20-29.60L7.20-29.60L7.20-29.60Q7.20-37.40 9.20-47.40L9.20-47.40L25.40-132L69.60-132L53.60-46.80L53.60-46.80Q51.80-37.40 51.80-30.50L51.80-30.50L51.80-30.50Q51.80-23.60 54.70-20L54.70-20L54.70-20Q57.60-16.40 63-16.40L63-16.40L63-16.40Q68.40-16.40 71.80-17.80L71.80-17.80L71.80-17.80Q75.20-19.20 78-22.60L78-22.60L78-22.60Q83.40-29.40 86.80-46.80L86.80-46.80L103-132L133.20-132L117.20-47L117.20-47Q111.60-18.60 96.20-7.20L96.20-7.20L96.20-7.20Q81.20 4 51.60 4L51.60 4L51.60 4Q29.40 4 17.60-5.60L17.60-5.60L17.60-5.60Q7.20-14 7.20-29.60Z" fill="#ccc"></path></g></g><style>text {
  font-size: 64px;
  font-family: Arial Black;
  dominant-baseline: central;
  text-anchor: middle;
}</style></svg>