<svg width="198.43999633789062px" height="336.8px" xmlns="http://www.w3.org/2000/svg" viewBox="150.78000183105468 -93.4 198.43999633789062 336.8" style="background: rgba(0, 0, 0, 0);" preserveAspectRatio="xMidYMid"><defs><filter id="editing-extrusion" x="-100%" y="-100%" width="300%" height="300%"><feFlood result="color1" flood-color="#000000"></feFlood><feConvolveMatrix order="16,16" divisor="1" kernelMatrix="1 0 0 0 0 0 0 0 0 0 0 0 0 0 0 0 0 1 0 0 0 0 0 0 0 0 0 0 0 0 0 0 0 0 1 0 0 0 0 0 0 0 0 0 0 0 0 0 0 0 0 1 0 0 0 0 0 0 0 0 0 0 0 0 0 0 0 0 1 0 0 0 0 0 0 0 0 0 0 0 0 0 0 0 0 1 0 0 0 0 0 0 0 0 0 0 0 0 0 0 0 0 1 0 0 0 0 0 0 0 0 0 0 0 0 0 0 0 0 1 0 0 0 0 0 0 0 0 0 0 0 0 0 0 0 0 1 0 0 0 0 0 0 0 0 0 0 0 0 0 0 0 0 1 0 0 0 0 0 0 0 0 0 0 0 0 0 0 0 0 1 0 0 0 0 0 0 0 0 0 0 0 0 0 0 0 0 1 0 0 0 0 0 0 0 0 0 0 0 0 0 0 0 0 1 0 0 0 0 0 0 0 0 0 0 0 0 0 0 0 0 1 0 0 0 0 0 0 0 0 0 0 0 0 0 0 0 0 1 0 0 0 0 0 0 0 0 0 0 0 0 0 0 0 0 1" in="SourceAlpha" result="extrude"></feConvolveMatrix><feComposite in="color1" in2="extrude" result="comp-extrude" operator="in"></feComposite><feOffset dx="8" dy="8" in="comp-extrude" result="offset-extrude"></feOffset><feMerge><feMergeNode in="offset-extrude"></feMergeNode><feMergeNode in="SourceGraphic"></feMergeNode></feMerge></filter></defs><g filter="url(#editing-extrusion)"><g transform="translate(182.80002307891846, 145)"><path d="M84.40-64.40L124.80-68L124.80-68Q110.40-36.40 110.40 0.20L110.40 0.20L110.40 0.20Q105 4 97.10 4L97.10 4L97.10 4Q89.20 4 84.20 0.30L84.20 0.30L84.20 0.30Q79.20-3.40 78.20-7.20L78.20-7.20L78.20-7.20Q73.20-2 65.10 1L65.10 1L65.10 1Q57 4 48.40 4L48.40 4L48.40 4Q39.80 4 32.30 1.20L32.30 1.20L32.30 1.20Q24.80-1.60 19-7.80L19-7.80L19-7.80Q6.20-21.40 6.20-47.20L6.20-47.20L6.20-47.20Q6.20-87.20 27.60-111.20L27.60-111.20L27.60-111.20Q49.60-136 88.60-136L88.60-136L88.60-136Q115.60-136 125.20-122L125.20-122L125.20-122Q128.20-117.60 128.20-112.30L128.20-112.30L128.20-112.30Q128.20-107 125.90-102.50L125.90-102.50L125.90-102.50Q123.60-98 120-94.40L120-94.40L120-94.40Q111.40-86.40 100.80-86.40L100.80-86.40L100.80-86.40Q96.60-86.40 92.60-87.80L92.60-87.80L92.60-87.80Q93.40-93.80 93.40-100.80L93.40-100.80L93.40-100.80Q93.40-107.80 92.90-111L92.90-111L92.90-111Q92.40-114.20 91.20-116.80L91.20-116.80L91.20-116.80Q88.60-122.20 82.90-122.20L82.90-122.20L82.90-122.20Q77.20-122.20 70.90-116.10L70.90-116.10L70.90-116.10Q64.60-110 59.60-100L59.60-100L59.60-100Q48.60-77.60 48.60-50.60L48.60-50.60L48.60-50.60Q48.60-38.20 53.40-29.40L53.40-29.40L53.40-29.40Q58.60-19.80 67.80-19.80L67.80-19.80L67.80-19.80Q71-19.80 73.90-21.40L73.90-21.40L73.90-21.40Q76.80-23 78-24.20L78-24.20L84.40-64.40Z" fill="#f8f8f8"></path></g></g><style>text {
  font-size: 64px;
  font-family: Arial Black;
  dominant-baseline: central;
  text-anchor: middle;
}</style></svg>